<?xml version="1.0" encoding="UTF-8" standalone="no"?>
<!DOCTYPE svg PUBLIC "-//W3C//DTD SVG 1.1//EN"
 "http://www.w3.org/Graphics/SVG/1.1/DTD/svg11.dtd">
<!-- Generated by graphviz version 2.40.1 (20161225.0304)
 -->
<!-- Title: G Pages: 1 -->
<svg width="472pt" height="3038pt"
 viewBox="0.00 0.00 472.00 3038.00" xmlns="http://www.w3.org/2000/svg" xmlns:xlink="http://www.w3.org/1999/xlink">
<g id="graph0" class="graph" transform="scale(1 1) rotate(0) translate(4 3034)">
<title>G</title>
<polygon fill="#ffffff" stroke="transparent" points="-4,4 -4,-3034 468,-3034 468,4 -4,4"/>
<!-- 139759921111616 -->
<g id="node1" class="node">
<title>139759921111616</title>
<polygon fill="none" stroke="#000000" points="260.5,-2993.5 260.5,-3029.5 385.5,-3029.5 385.5,-2993.5 260.5,-2993.5"/>
<text text-anchor="middle" x="323" y="-3007.8" font-family="Times,serif" font-size="14.00" fill="#000000">input_1: InputLayer</text>
</g>
<!-- 139757432440256 -->
<g id="node2" class="node">
<title>139757432440256</title>
<polygon fill="none" stroke="#000000" points="217.5,-2920.5 217.5,-2956.5 428.5,-2956.5 428.5,-2920.5 217.5,-2920.5"/>
<text text-anchor="middle" x="323" y="-2934.8" font-family="Times,serif" font-size="14.00" fill="#000000">zero_padding2d_1: ZeroPadding2D</text>
</g>
<!-- 139759921111616&#45;&gt;139757432440256 -->
<g id="edge1" class="edge">
<title>139759921111616&#45;&gt;139757432440256</title>
<path fill="none" stroke="#000000" d="M323,-2993.4551C323,-2985.3828 323,-2975.6764 323,-2966.6817"/>
<polygon fill="#000000" stroke="#000000" points="326.5001,-2966.5903 323,-2956.5904 319.5001,-2966.5904 326.5001,-2966.5903"/>
</g>
<!-- 139757432439808 -->
<g id="node3" class="node">
<title>139757432439808</title>
<polygon fill="none" stroke="#000000" points="261.5,-2847.5 261.5,-2883.5 384.5,-2883.5 384.5,-2847.5 261.5,-2847.5"/>
<text text-anchor="middle" x="323" y="-2861.8" font-family="Times,serif" font-size="14.00" fill="#000000">conv2d_1: Conv2D</text>
</g>
<!-- 139757432440256&#45;&gt;139757432439808 -->
<g id="edge2" class="edge">
<title>139757432440256&#45;&gt;139757432439808</title>
<path fill="none" stroke="#000000" d="M323,-2920.4551C323,-2912.3828 323,-2902.6764 323,-2893.6817"/>
<polygon fill="#000000" stroke="#000000" points="326.5001,-2893.5903 323,-2883.5904 319.5001,-2893.5904 326.5001,-2893.5903"/>
</g>
<!-- 139757432440144 -->
<g id="node4" class="node">
<title>139757432440144</title>
<polygon fill="none" stroke="#000000" points="193,-2774.5 193,-2810.5 453,-2810.5 453,-2774.5 193,-2774.5"/>
<text text-anchor="middle" x="323" y="-2788.8" font-family="Times,serif" font-size="14.00" fill="#000000">batch_normalization_1: BatchNormalization</text>
</g>
<!-- 139757432439808&#45;&gt;139757432440144 -->
<g id="edge3" class="edge">
<title>139757432439808&#45;&gt;139757432440144</title>
<path fill="none" stroke="#000000" d="M323,-2847.4551C323,-2839.3828 323,-2829.6764 323,-2820.6817"/>
<polygon fill="#000000" stroke="#000000" points="326.5001,-2820.5903 323,-2810.5904 319.5001,-2820.5904 326.5001,-2820.5903"/>
</g>
<!-- 139757432440704 -->
<g id="node5" class="node">
<title>139757432440704</title>
<polygon fill="none" stroke="#000000" points="249,-2701.5 249,-2737.5 397,-2737.5 397,-2701.5 249,-2701.5"/>
<text text-anchor="middle" x="323" y="-2715.8" font-family="Times,serif" font-size="14.00" fill="#000000">activation_1: Activation</text>
</g>
<!-- 139757432440144&#45;&gt;139757432440704 -->
<g id="edge4" class="edge">
<title>139757432440144&#45;&gt;139757432440704</title>
<path fill="none" stroke="#000000" d="M323,-2774.4551C323,-2766.3828 323,-2756.6764 323,-2747.6817"/>
<polygon fill="#000000" stroke="#000000" points="326.5001,-2747.5903 323,-2737.5904 319.5001,-2747.5904 326.5001,-2747.5903"/>
</g>
<!-- 139759948232464 -->
<g id="node6" class="node">
<title>139759948232464</title>
<polygon fill="none" stroke="#000000" points="219.5,-2628.5 219.5,-2664.5 426.5,-2664.5 426.5,-2628.5 219.5,-2628.5"/>
<text text-anchor="middle" x="323" y="-2642.8" font-family="Times,serif" font-size="14.00" fill="#000000">max_pooling2d_1: MaxPooling2D</text>
</g>
<!-- 139757432440704&#45;&gt;139759948232464 -->
<g id="edge5" class="edge">
<title>139757432440704&#45;&gt;139759948232464</title>
<path fill="none" stroke="#000000" d="M323,-2701.4551C323,-2693.3828 323,-2683.6764 323,-2674.6817"/>
<polygon fill="#000000" stroke="#000000" points="326.5001,-2674.5903 323,-2664.5904 319.5001,-2674.5904 326.5001,-2674.5903"/>
</g>
<!-- 139757423728008 -->
<g id="node7" class="node">
<title>139757423728008</title>
<polygon fill="none" stroke="#000000" points="217.5,-2555.5 217.5,-2591.5 428.5,-2591.5 428.5,-2555.5 217.5,-2555.5"/>
<text text-anchor="middle" x="323" y="-2569.8" font-family="Times,serif" font-size="14.00" fill="#000000">zero_padding2d_2: ZeroPadding2D</text>
</g>
<!-- 139759948232464&#45;&gt;139757423728008 -->
<g id="edge6" class="edge">
<title>139759948232464&#45;&gt;139757423728008</title>
<path fill="none" stroke="#000000" d="M323,-2628.4551C323,-2620.3828 323,-2610.6764 323,-2601.6817"/>
<polygon fill="#000000" stroke="#000000" points="326.5001,-2601.5903 323,-2591.5904 319.5001,-2601.5904 326.5001,-2601.5903"/>
</g>
<!-- 139757423867832 -->
<g id="node8" class="node">
<title>139757423867832</title>
<polygon fill="none" stroke="#000000" points="261.5,-2482.5 261.5,-2518.5 384.5,-2518.5 384.5,-2482.5 261.5,-2482.5"/>
<text text-anchor="middle" x="323" y="-2496.8" font-family="Times,serif" font-size="14.00" fill="#000000">conv2d_2: Conv2D</text>
</g>
<!-- 139757423728008&#45;&gt;139757423867832 -->
<g id="edge7" class="edge">
<title>139757423728008&#45;&gt;139757423867832</title>
<path fill="none" stroke="#000000" d="M323,-2555.4551C323,-2547.3828 323,-2537.6764 323,-2528.6817"/>
<polygon fill="#000000" stroke="#000000" points="326.5001,-2528.5903 323,-2518.5904 319.5001,-2528.5904 326.5001,-2528.5903"/>
</g>
<!-- 139757423622968 -->
<g id="node9" class="node">
<title>139757423622968</title>
<polygon fill="none" stroke="#000000" points="193,-2409.5 193,-2445.5 453,-2445.5 453,-2409.5 193,-2409.5"/>
<text text-anchor="middle" x="323" y="-2423.8" font-family="Times,serif" font-size="14.00" fill="#000000">batch_normalization_2: BatchNormalization</text>
</g>
<!-- 139757423867832&#45;&gt;139757423622968 -->
<g id="edge8" class="edge">
<title>139757423867832&#45;&gt;139757423622968</title>
<path fill="none" stroke="#000000" d="M323,-2482.4551C323,-2474.3828 323,-2464.6764 323,-2455.6817"/>
<polygon fill="#000000" stroke="#000000" points="326.5001,-2455.5903 323,-2445.5904 319.5001,-2455.5904 326.5001,-2455.5903"/>
</g>
<!-- 139757423229472 -->
<g id="node10" class="node">
<title>139757423229472</title>
<polygon fill="none" stroke="#000000" points="249,-2336.5 249,-2372.5 397,-2372.5 397,-2336.5 249,-2336.5"/>
<text text-anchor="middle" x="323" y="-2350.8" font-family="Times,serif" font-size="14.00" fill="#000000">activation_2: Activation</text>
</g>
<!-- 139757423622968&#45;&gt;139757423229472 -->
<g id="edge9" class="edge">
<title>139757423622968&#45;&gt;139757423229472</title>
<path fill="none" stroke="#000000" d="M323,-2409.4551C323,-2401.3828 323,-2391.6764 323,-2382.6817"/>
<polygon fill="#000000" stroke="#000000" points="326.5001,-2382.5903 323,-2372.5904 319.5001,-2382.5904 326.5001,-2382.5903"/>
</g>
<!-- 139757422891416 -->
<g id="node11" class="node">
<title>139757422891416</title>
<polygon fill="none" stroke="#000000" points="219.5,-2263.5 219.5,-2299.5 426.5,-2299.5 426.5,-2263.5 219.5,-2263.5"/>
<text text-anchor="middle" x="323" y="-2277.8" font-family="Times,serif" font-size="14.00" fill="#000000">max_pooling2d_2: MaxPooling2D</text>
</g>
<!-- 139757423229472&#45;&gt;139757422891416 -->
<g id="edge10" class="edge">
<title>139757423229472&#45;&gt;139757422891416</title>
<path fill="none" stroke="#000000" d="M323,-2336.4551C323,-2328.3828 323,-2318.6764 323,-2309.6817"/>
<polygon fill="#000000" stroke="#000000" points="326.5001,-2309.5903 323,-2299.5904 319.5001,-2309.5904 326.5001,-2309.5903"/>
</g>
<!-- 139757422891808 -->
<g id="node12" class="node">
<title>139757422891808</title>
<polygon fill="none" stroke="#000000" points="217.5,-2190.5 217.5,-2226.5 428.5,-2226.5 428.5,-2190.5 217.5,-2190.5"/>
<text text-anchor="middle" x="323" y="-2204.8" font-family="Times,serif" font-size="14.00" fill="#000000">zero_padding2d_3: ZeroPadding2D</text>
</g>
<!-- 139757422891416&#45;&gt;139757422891808 -->
<g id="edge11" class="edge">
<title>139757422891416&#45;&gt;139757422891808</title>
<path fill="none" stroke="#000000" d="M323,-2263.4551C323,-2255.3828 323,-2245.6764 323,-2236.6817"/>
<polygon fill="#000000" stroke="#000000" points="326.5001,-2236.5903 323,-2226.5904 319.5001,-2236.5904 326.5001,-2236.5903"/>
</g>
<!-- 139757422656424 -->
<g id="node13" class="node">
<title>139757422656424</title>
<polygon fill="none" stroke="#000000" points="261.5,-2117.5 261.5,-2153.5 384.5,-2153.5 384.5,-2117.5 261.5,-2117.5"/>
<text text-anchor="middle" x="323" y="-2131.8" font-family="Times,serif" font-size="14.00" fill="#000000">conv2d_3: Conv2D</text>
</g>
<!-- 139757422891808&#45;&gt;139757422656424 -->
<g id="edge12" class="edge">
<title>139757422891808&#45;&gt;139757422656424</title>
<path fill="none" stroke="#000000" d="M323,-2190.4551C323,-2182.3828 323,-2172.6764 323,-2163.6817"/>
<polygon fill="#000000" stroke="#000000" points="326.5001,-2163.5903 323,-2153.5904 319.5001,-2163.5904 326.5001,-2163.5903"/>
</g>
<!-- 139757423006216 -->
<g id="node14" class="node">
<title>139757423006216</title>
<polygon fill="none" stroke="#000000" points="193,-2044.5 193,-2080.5 453,-2080.5 453,-2044.5 193,-2044.5"/>
<text text-anchor="middle" x="323" y="-2058.8" font-family="Times,serif" font-size="14.00" fill="#000000">batch_normalization_3: BatchNormalization</text>
</g>
<!-- 139757422656424&#45;&gt;139757423006216 -->
<g id="edge13" class="edge">
<title>139757422656424&#45;&gt;139757423006216</title>
<path fill="none" stroke="#000000" d="M323,-2117.4551C323,-2109.3828 323,-2099.6764 323,-2090.6817"/>
<polygon fill="#000000" stroke="#000000" points="326.5001,-2090.5903 323,-2080.5904 319.5001,-2090.5904 326.5001,-2090.5903"/>
</g>
<!-- 139757422801808 -->
<g id="node15" class="node">
<title>139757422801808</title>
<polygon fill="none" stroke="#000000" points="249,-1971.5 249,-2007.5 397,-2007.5 397,-1971.5 249,-1971.5"/>
<text text-anchor="middle" x="323" y="-1985.8" font-family="Times,serif" font-size="14.00" fill="#000000">activation_3: Activation</text>
</g>
<!-- 139757423006216&#45;&gt;139757422801808 -->
<g id="edge14" class="edge">
<title>139757423006216&#45;&gt;139757422801808</title>
<path fill="none" stroke="#000000" d="M323,-2044.4551C323,-2036.3828 323,-2026.6764 323,-2017.6817"/>
<polygon fill="#000000" stroke="#000000" points="326.5001,-2017.5903 323,-2007.5904 319.5001,-2017.5904 326.5001,-2017.5903"/>
</g>
<!-- 139757422427832 -->
<g id="node16" class="node">
<title>139757422427832</title>
<polygon fill="none" stroke="#000000" points="219.5,-1898.5 219.5,-1934.5 426.5,-1934.5 426.5,-1898.5 219.5,-1898.5"/>
<text text-anchor="middle" x="323" y="-1912.8" font-family="Times,serif" font-size="14.00" fill="#000000">max_pooling2d_3: MaxPooling2D</text>
</g>
<!-- 139757422801808&#45;&gt;139757422427832 -->
<g id="edge15" class="edge">
<title>139757422801808&#45;&gt;139757422427832</title>
<path fill="none" stroke="#000000" d="M323,-1971.4551C323,-1963.3828 323,-1953.6764 323,-1944.6817"/>
<polygon fill="#000000" stroke="#000000" points="326.5001,-1944.5903 323,-1934.5904 319.5001,-1944.5904 326.5001,-1944.5903"/>
</g>
<!-- 139757422427776 -->
<g id="node17" class="node">
<title>139757422427776</title>
<polygon fill="none" stroke="#000000" points="150.5,-1825.5 150.5,-1861.5 361.5,-1861.5 361.5,-1825.5 150.5,-1825.5"/>
<text text-anchor="middle" x="256" y="-1839.8" font-family="Times,serif" font-size="14.00" fill="#000000">zero_padding2d_4: ZeroPadding2D</text>
</g>
<!-- 139757422427832&#45;&gt;139757422427776 -->
<g id="edge16" class="edge">
<title>139757422427832&#45;&gt;139757422427776</title>
<path fill="none" stroke="#000000" d="M306.4382,-1898.4551C298.3047,-1889.5932 288.3634,-1878.7616 279.4634,-1869.0646"/>
<polygon fill="#000000" stroke="#000000" points="281.9439,-1866.5911 272.6035,-1861.5904 276.7867,-1871.3244 281.9439,-1866.5911"/>
</g>
<!-- 139757419107552 -->
<g id="node39" class="node">
<title>139757419107552</title>
<polygon fill="none" stroke="#000000" points="334,-1752.5 334,-1788.5 464,-1788.5 464,-1752.5 334,-1752.5"/>
<text text-anchor="middle" x="399" y="-1766.8" font-family="Times,serif" font-size="14.00" fill="#000000">conv2d_10: Conv2D</text>
</g>
<!-- 139757422427832&#45;&gt;139757419107552 -->
<g id="edge39" class="edge">
<title>139757422427832&#45;&gt;139757419107552</title>
<path fill="none" stroke="#000000" d="M342.5193,-1898.373C352.2442,-1888.4354 363.4973,-1875.4283 371,-1862 382.0923,-1842.1469 389.3282,-1817.362 393.6602,-1798.5967"/>
<polygon fill="#000000" stroke="#000000" points="397.1304,-1799.1084 395.8282,-1788.5939 390.2893,-1797.6255 397.1304,-1799.1084"/>
</g>
<!-- 139757422058184 -->
<g id="node18" class="node">
<title>139757422058184</title>
<polygon fill="none" stroke="#000000" points="189.5,-1752.5 189.5,-1788.5 312.5,-1788.5 312.5,-1752.5 189.5,-1752.5"/>
<text text-anchor="middle" x="251" y="-1766.8" font-family="Times,serif" font-size="14.00" fill="#000000">conv2d_4: Conv2D</text>
</g>
<!-- 139757422427776&#45;&gt;139757422058184 -->
<g id="edge17" class="edge">
<title>139757422427776&#45;&gt;139757422058184</title>
<path fill="none" stroke="#000000" d="M254.764,-1825.4551C254.2112,-1817.3828 253.5463,-1807.6764 252.9303,-1798.6817"/>
<polygon fill="#000000" stroke="#000000" points="256.4143,-1798.3278 252.2391,-1788.5904 249.4307,-1798.8062 256.4143,-1798.3278"/>
</g>
<!-- 139757422059360 -->
<g id="node19" class="node">
<title>139757422059360</title>
<polygon fill="none" stroke="#000000" points="115,-1679.5 115,-1715.5 375,-1715.5 375,-1679.5 115,-1679.5"/>
<text text-anchor="middle" x="245" y="-1693.8" font-family="Times,serif" font-size="14.00" fill="#000000">batch_normalization_4: BatchNormalization</text>
</g>
<!-- 139757422058184&#45;&gt;139757422059360 -->
<g id="edge18" class="edge">
<title>139757422058184&#45;&gt;139757422059360</title>
<path fill="none" stroke="#000000" d="M249.5169,-1752.4551C248.8534,-1744.3828 248.0556,-1734.6764 247.3163,-1725.6817"/>
<polygon fill="#000000" stroke="#000000" points="250.7944,-1725.27 246.4869,-1715.5904 243.8179,-1725.8435 250.7944,-1725.27"/>
</g>
<!-- 139757421990016 -->
<g id="node20" class="node">
<title>139757421990016</title>
<polygon fill="none" stroke="#000000" points="171,-1606.5 171,-1642.5 319,-1642.5 319,-1606.5 171,-1606.5"/>
<text text-anchor="middle" x="245" y="-1620.8" font-family="Times,serif" font-size="14.00" fill="#000000">activation_4: Activation</text>
</g>
<!-- 139757422059360&#45;&gt;139757421990016 -->
<g id="edge19" class="edge">
<title>139757422059360&#45;&gt;139757421990016</title>
<path fill="none" stroke="#000000" d="M245,-1679.4551C245,-1671.3828 245,-1661.6764 245,-1652.6817"/>
<polygon fill="#000000" stroke="#000000" points="248.5001,-1652.5903 245,-1642.5904 241.5001,-1652.5904 248.5001,-1652.5903"/>
</g>
<!-- 139757421658008 -->
<g id="node21" class="node">
<title>139757421658008</title>
<polygon fill="none" stroke="#000000" points="141.5,-1533.5 141.5,-1569.5 348.5,-1569.5 348.5,-1533.5 141.5,-1533.5"/>
<text text-anchor="middle" x="245" y="-1547.8" font-family="Times,serif" font-size="14.00" fill="#000000">max_pooling2d_4: MaxPooling2D</text>
</g>
<!-- 139757421990016&#45;&gt;139757421658008 -->
<g id="edge20" class="edge">
<title>139757421990016&#45;&gt;139757421658008</title>
<path fill="none" stroke="#000000" d="M245,-1606.4551C245,-1598.3828 245,-1588.6764 245,-1579.6817"/>
<polygon fill="#000000" stroke="#000000" points="248.5001,-1579.5903 245,-1569.5904 241.5001,-1579.5904 248.5001,-1579.5903"/>
</g>
<!-- 139757421656664 -->
<g id="node22" class="node">
<title>139757421656664</title>
<polygon fill="none" stroke="#000000" points="38.5,-1460.5 38.5,-1496.5 249.5,-1496.5 249.5,-1460.5 38.5,-1460.5"/>
<text text-anchor="middle" x="144" y="-1474.8" font-family="Times,serif" font-size="14.00" fill="#000000">zero_padding2d_5: ZeroPadding2D</text>
</g>
<!-- 139757421658008&#45;&gt;139757421656664 -->
<g id="edge21" class="edge">
<title>139757421658008&#45;&gt;139757421656664</title>
<path fill="none" stroke="#000000" d="M220.0337,-1533.4551C207.1658,-1524.1545 191.2962,-1512.6844 177.3898,-1502.6332"/>
<polygon fill="#000000" stroke="#000000" points="179.1841,-1499.6116 169.0291,-1496.5904 175.0836,-1505.2849 179.1841,-1499.6116"/>
</g>
<!-- 139757419578536 -->
<g id="node35" class="node">
<title>139757419578536</title>
<polygon fill="none" stroke="#000000" points="221.5,-1387.5 221.5,-1423.5 344.5,-1423.5 344.5,-1387.5 221.5,-1387.5"/>
<text text-anchor="middle" x="283" y="-1401.8" font-family="Times,serif" font-size="14.00" fill="#000000">conv2d_9: Conv2D</text>
</g>
<!-- 139757421658008&#45;&gt;139757419578536 -->
<g id="edge34" class="edge">
<title>139757421658008&#45;&gt;139757419578536</title>
<path fill="none" stroke="#000000" d="M249.7359,-1533.3042C256.2213,-1508.3868 267.9317,-1463.3938 275.5854,-1433.9877"/>
<polygon fill="#000000" stroke="#000000" points="279.0727,-1434.4843 278.2044,-1423.9251 272.2984,-1432.7211 279.0727,-1434.4843"/>
</g>
<!-- 139757421762264 -->
<g id="node23" class="node">
<title>139757421762264</title>
<polygon fill="none" stroke="#000000" points="76.5,-1387.5 76.5,-1423.5 199.5,-1423.5 199.5,-1387.5 76.5,-1387.5"/>
<text text-anchor="middle" x="138" y="-1401.8" font-family="Times,serif" font-size="14.00" fill="#000000">conv2d_5: Conv2D</text>
</g>
<!-- 139757421656664&#45;&gt;139757421762264 -->
<g id="edge22" class="edge">
<title>139757421656664&#45;&gt;139757421762264</title>
<path fill="none" stroke="#000000" d="M142.5169,-1460.4551C141.8534,-1452.3828 141.0556,-1442.6764 140.3163,-1433.6817"/>
<polygon fill="#000000" stroke="#000000" points="143.7944,-1433.27 139.4869,-1423.5904 136.8179,-1433.8435 143.7944,-1433.27"/>
</g>
<!-- 139757421522504 -->
<g id="node24" class="node">
<title>139757421522504</title>
<polygon fill="none" stroke="#000000" points="0,-1314.5 0,-1350.5 260,-1350.5 260,-1314.5 0,-1314.5"/>
<text text-anchor="middle" x="130" y="-1328.8" font-family="Times,serif" font-size="14.00" fill="#000000">batch_normalization_5: BatchNormalization</text>
</g>
<!-- 139757421762264&#45;&gt;139757421522504 -->
<g id="edge23" class="edge">
<title>139757421762264&#45;&gt;139757421522504</title>
<path fill="none" stroke="#000000" d="M136.0225,-1387.4551C135.1378,-1379.3828 134.0741,-1369.6764 133.0884,-1360.6817"/>
<polygon fill="#000000" stroke="#000000" points="136.5511,-1360.1495 131.9825,-1350.5904 129.5928,-1360.9122 136.5511,-1360.1495"/>
</g>
<!-- 139757421171880 -->
<g id="node25" class="node">
<title>139757421171880</title>
<polygon fill="none" stroke="#000000" points="56,-1241.5 56,-1277.5 204,-1277.5 204,-1241.5 56,-1241.5"/>
<text text-anchor="middle" x="130" y="-1255.8" font-family="Times,serif" font-size="14.00" fill="#000000">activation_5: Activation</text>
</g>
<!-- 139757421522504&#45;&gt;139757421171880 -->
<g id="edge24" class="edge">
<title>139757421522504&#45;&gt;139757421171880</title>
<path fill="none" stroke="#000000" d="M130,-1314.4551C130,-1306.3828 130,-1296.6764 130,-1287.6817"/>
<polygon fill="#000000" stroke="#000000" points="133.5001,-1287.5903 130,-1277.5904 126.5001,-1287.5904 133.5001,-1287.5903"/>
</g>
<!-- 139757420825344 -->
<g id="node26" class="node">
<title>139757420825344</title>
<polygon fill="none" stroke="#000000" points="26.5,-1168.5 26.5,-1204.5 233.5,-1204.5 233.5,-1168.5 26.5,-1168.5"/>
<text text-anchor="middle" x="130" y="-1182.8" font-family="Times,serif" font-size="14.00" fill="#000000">max_pooling2d_5: MaxPooling2D</text>
</g>
<!-- 139757421171880&#45;&gt;139757420825344 -->
<g id="edge25" class="edge">
<title>139757421171880&#45;&gt;139757420825344</title>
<path fill="none" stroke="#000000" d="M130,-1241.4551C130,-1233.3828 130,-1223.6764 130,-1214.6817"/>
<polygon fill="#000000" stroke="#000000" points="133.5001,-1214.5903 130,-1204.5904 126.5001,-1214.5904 133.5001,-1214.5903"/>
</g>
<!-- 139757420825736 -->
<g id="node27" class="node">
<title>139757420825736</title>
<polygon fill="none" stroke="#000000" points="68.5,-1095.5 68.5,-1131.5 191.5,-1131.5 191.5,-1095.5 68.5,-1095.5"/>
<text text-anchor="middle" x="130" y="-1109.8" font-family="Times,serif" font-size="14.00" fill="#000000">conv2d_6: Conv2D</text>
</g>
<!-- 139757420825344&#45;&gt;139757420825736 -->
<g id="edge26" class="edge">
<title>139757420825344&#45;&gt;139757420825736</title>
<path fill="none" stroke="#000000" d="M130,-1168.4551C130,-1160.3828 130,-1150.6764 130,-1141.6817"/>
<polygon fill="#000000" stroke="#000000" points="133.5001,-1141.5903 130,-1131.5904 126.5001,-1141.5904 133.5001,-1141.5903"/>
</g>
<!-- 139757420553384 -->
<g id="node28" class="node">
<title>139757420553384</title>
<polygon fill="none" stroke="#000000" points="68.5,-1022.5 68.5,-1058.5 193.5,-1058.5 193.5,-1022.5 68.5,-1022.5"/>
<text text-anchor="middle" x="131" y="-1036.8" font-family="Times,serif" font-size="14.00" fill="#000000">dropout_1: Dropout</text>
</g>
<!-- 139757420825736&#45;&gt;139757420553384 -->
<g id="edge27" class="edge">
<title>139757420825736&#45;&gt;139757420553384</title>
<path fill="none" stroke="#000000" d="M130.2472,-1095.4551C130.3578,-1087.3828 130.4907,-1077.6764 130.6139,-1068.6817"/>
<polygon fill="#000000" stroke="#000000" points="134.1148,-1068.6374 130.7522,-1058.5904 127.1154,-1068.5414 134.1148,-1068.6374"/>
</g>
<!-- 139757420342016 -->
<g id="node29" class="node">
<title>139757420342016</title>
<polygon fill="none" stroke="#000000" points="70.5,-949.5 70.5,-985.5 193.5,-985.5 193.5,-949.5 70.5,-949.5"/>
<text text-anchor="middle" x="132" y="-963.8" font-family="Times,serif" font-size="14.00" fill="#000000">conv2d_7: Conv2D</text>
</g>
<!-- 139757420553384&#45;&gt;139757420342016 -->
<g id="edge28" class="edge">
<title>139757420553384&#45;&gt;139757420342016</title>
<path fill="none" stroke="#000000" d="M131.2472,-1022.4551C131.3578,-1014.3828 131.4907,-1004.6764 131.6139,-995.6817"/>
<polygon fill="#000000" stroke="#000000" points="135.1148,-995.6374 131.7522,-985.5904 128.1154,-995.5414 135.1148,-995.6374"/>
</g>
<!-- 139757420713744 -->
<g id="node30" class="node">
<title>139757420713744</title>
<polygon fill="none" stroke="#000000" points="72.5,-876.5 72.5,-912.5 197.5,-912.5 197.5,-876.5 72.5,-876.5"/>
<text text-anchor="middle" x="135" y="-890.8" font-family="Times,serif" font-size="14.00" fill="#000000">dropout_2: Dropout</text>
</g>
<!-- 139757420342016&#45;&gt;139757420713744 -->
<g id="edge29" class="edge">
<title>139757420342016&#45;&gt;139757420713744</title>
<path fill="none" stroke="#000000" d="M132.7416,-949.4551C133.0733,-941.3828 133.4722,-931.6764 133.8418,-922.6817"/>
<polygon fill="#000000" stroke="#000000" points="137.3429,-922.7257 134.2566,-912.5904 130.3488,-922.4382 137.3429,-922.7257"/>
</g>
<!-- 139757419993128 -->
<g id="node31" class="node">
<title>139757419993128</title>
<polygon fill="none" stroke="#000000" points="79.5,-803.5 79.5,-839.5 202.5,-839.5 202.5,-803.5 79.5,-803.5"/>
<text text-anchor="middle" x="141" y="-817.8" font-family="Times,serif" font-size="14.00" fill="#000000">conv2d_8: Conv2D</text>
</g>
<!-- 139757420713744&#45;&gt;139757419993128 -->
<g id="edge30" class="edge">
<title>139757420713744&#45;&gt;139757419993128</title>
<path fill="none" stroke="#000000" d="M136.4831,-876.4551C137.1466,-868.3828 137.9444,-858.6764 138.6837,-849.6817"/>
<polygon fill="#000000" stroke="#000000" points="142.1821,-849.8435 139.5131,-839.5904 135.2056,-849.27 142.1821,-849.8435"/>
</g>
<!-- 139757419992456 -->
<g id="node32" class="node">
<title>139757419992456</title>
<polygon fill="none" stroke="#000000" points="24,-730.5 24,-766.5 260,-766.5 260,-730.5 24,-730.5"/>
<text text-anchor="middle" x="142" y="-744.8" font-family="Times,serif" font-size="14.00" fill="#000000">conv2d_transpose_1: Conv2DTranspose</text>
</g>
<!-- 139757419993128&#45;&gt;139757419992456 -->
<g id="edge31" class="edge">
<title>139757419993128&#45;&gt;139757419992456</title>
<path fill="none" stroke="#000000" d="M141.2472,-803.4551C141.3578,-795.3828 141.4907,-785.6764 141.6139,-776.6817"/>
<polygon fill="#000000" stroke="#000000" points="145.1148,-776.6374 141.7522,-766.5904 138.1154,-776.5414 145.1148,-776.6374"/>
</g>
<!-- 139757418985736 -->
<g id="node33" class="node">
<title>139757418985736</title>
<polygon fill="none" stroke="#000000" points="75.5,-657.5 75.5,-693.5 242.5,-693.5 242.5,-657.5 75.5,-657.5"/>
<text text-anchor="middle" x="159" y="-671.8" font-family="Times,serif" font-size="14.00" fill="#000000">cropping2d_1: Cropping2D</text>
</g>
<!-- 139757419992456&#45;&gt;139757418985736 -->
<g id="edge32" class="edge">
<title>139757419992456&#45;&gt;139757418985736</title>
<path fill="none" stroke="#000000" d="M146.2022,-730.4551C148.1025,-722.2951 150.3917,-712.4652 152.5054,-703.3887"/>
<polygon fill="#000000" stroke="#000000" points="155.9278,-704.1236 154.7872,-693.5904 149.1102,-702.5359 155.9278,-704.1236"/>
</g>
<!-- 139757418986744 -->
<g id="node34" class="node">
<title>139757418986744</title>
<polygon fill="none" stroke="#000000" points="84.5,-584.5 84.5,-620.5 251.5,-620.5 251.5,-584.5 84.5,-584.5"/>
<text text-anchor="middle" x="168" y="-598.8" font-family="Times,serif" font-size="14.00" fill="#000000">cropping2d_2: Cropping2D</text>
</g>
<!-- 139757418985736&#45;&gt;139757418986744 -->
<g id="edge33" class="edge">
<title>139757418985736&#45;&gt;139757418986744</title>
<path fill="none" stroke="#000000" d="M161.2247,-657.4551C162.2199,-649.3828 163.4166,-639.6764 164.5255,-630.6817"/>
<polygon fill="#000000" stroke="#000000" points="168.0197,-630.9435 165.7697,-620.5904 161.0723,-630.0869 168.0197,-630.9435"/>
</g>
<!-- 139757418987248 -->
<g id="node36" class="node">
<title>139757418987248</title>
<polygon fill="none" stroke="#000000" points="217,-511.5 217,-547.5 297,-547.5 297,-511.5 217,-511.5"/>
<text text-anchor="middle" x="257" y="-525.8" font-family="Times,serif" font-size="14.00" fill="#000000">add_1: Add</text>
</g>
<!-- 139757418986744&#45;&gt;139757418987248 -->
<g id="edge35" class="edge">
<title>139757418986744&#45;&gt;139757418987248</title>
<path fill="none" stroke="#000000" d="M190,-584.4551C201.1251,-575.3299 214.7964,-564.1165 226.8819,-554.2036"/>
<polygon fill="#000000" stroke="#000000" points="229.4324,-556.6384 234.9446,-547.5904 224.9931,-551.2261 229.4324,-556.6384"/>
</g>
<!-- 139757419578536&#45;&gt;139757418987248 -->
<g id="edge36" class="edge">
<title>139757419578536&#45;&gt;139757418987248</title>
<path fill="none" stroke="#000000" d="M284.036,-1387.069C285.5005,-1359.3821 288,-1305.4054 288,-1259.5 288,-1259.5 288,-1259.5 288,-675.5 288,-633.7286 275.7078,-586.6719 266.6042,-557.5495"/>
<polygon fill="#000000" stroke="#000000" points="269.8209,-556.1198 263.4232,-547.6746 263.158,-558.2661 269.8209,-556.1198"/>
</g>
<!-- 139757418987136 -->
<g id="node37" class="node">
<title>139757418987136</title>
<polygon fill="none" stroke="#000000" points="139,-438.5 139,-474.5 375,-474.5 375,-438.5 139,-438.5"/>
<text text-anchor="middle" x="257" y="-452.8" font-family="Times,serif" font-size="14.00" fill="#000000">conv2d_transpose_2: Conv2DTranspose</text>
</g>
<!-- 139757418987248&#45;&gt;139757418987136 -->
<g id="edge37" class="edge">
<title>139757418987248&#45;&gt;139757418987136</title>
<path fill="none" stroke="#000000" d="M257,-511.4551C257,-503.3828 257,-493.6764 257,-484.6817"/>
<polygon fill="#000000" stroke="#000000" points="260.5001,-484.5903 257,-474.5904 253.5001,-484.5904 260.5001,-484.5903"/>
</g>
<!-- 139757418887152 -->
<g id="node38" class="node">
<title>139757418887152</title>
<polygon fill="none" stroke="#000000" points="182.5,-365.5 182.5,-401.5 349.5,-401.5 349.5,-365.5 182.5,-365.5"/>
<text text-anchor="middle" x="266" y="-379.8" font-family="Times,serif" font-size="14.00" fill="#000000">cropping2d_3: Cropping2D</text>
</g>
<!-- 139757418987136&#45;&gt;139757418887152 -->
<g id="edge38" class="edge">
<title>139757418987136&#45;&gt;139757418887152</title>
<path fill="none" stroke="#000000" d="M259.2247,-438.4551C260.2199,-430.3828 261.4166,-420.6764 262.5255,-411.6817"/>
<polygon fill="#000000" stroke="#000000" points="266.0197,-411.9435 263.7697,-401.5904 259.0723,-411.0869 266.0197,-411.9435"/>
</g>
<!-- 139757418523056 -->
<g id="node40" class="node">
<title>139757418523056</title>
<polygon fill="none" stroke="#000000" points="199.5,-292.5 199.5,-328.5 366.5,-328.5 366.5,-292.5 199.5,-292.5"/>
<text text-anchor="middle" x="283" y="-306.8" font-family="Times,serif" font-size="14.00" fill="#000000">cropping2d_4: Cropping2D</text>
</g>
<!-- 139757418887152&#45;&gt;139757418523056 -->
<g id="edge40" class="edge">
<title>139757418887152&#45;&gt;139757418523056</title>
<path fill="none" stroke="#000000" d="M270.2022,-365.4551C272.1025,-357.2951 274.3917,-347.4652 276.5054,-338.3887"/>
<polygon fill="#000000" stroke="#000000" points="279.9278,-339.1236 278.7872,-328.5904 273.1102,-337.5359 279.9278,-339.1236"/>
</g>
<!-- 139757418520984 -->
<g id="node41" class="node">
<title>139757418520984</title>
<polygon fill="none" stroke="#000000" points="298,-219.5 298,-255.5 378,-255.5 378,-219.5 298,-219.5"/>
<text text-anchor="middle" x="338" y="-233.8" font-family="Times,serif" font-size="14.00" fill="#000000">add_2: Add</text>
</g>
<!-- 139757419107552&#45;&gt;139757418520984 -->
<g id="edge41" class="edge">
<title>139757419107552&#45;&gt;139757418520984</title>
<path fill="none" stroke="#000000" d="M399.8288,-1752.0665C401.0004,-1724.3764 403,-1670.3957 403,-1624.5 403,-1624.5 403,-1624.5 403,-383.5 403,-338.6852 377.1248,-292.3013 358.0256,-264.1681"/>
<polygon fill="#000000" stroke="#000000" points="360.7031,-261.8896 352.104,-255.7004 354.9667,-265.9012 360.7031,-261.8896"/>
</g>
<!-- 139757418523056&#45;&gt;139757418520984 -->
<g id="edge42" class="edge">
<title>139757418523056&#45;&gt;139757418520984</title>
<path fill="none" stroke="#000000" d="M296.5955,-292.4551C303.1401,-283.7686 311.1104,-273.1898 318.304,-263.642"/>
<polygon fill="#000000" stroke="#000000" points="321.1482,-265.6834 324.3703,-255.5904 315.5573,-261.4711 321.1482,-265.6834"/>
</g>
<!-- 139757418521488 -->
<g id="node42" class="node">
<title>139757418521488</title>
<polygon fill="none" stroke="#000000" points="220,-146.5 220,-182.5 456,-182.5 456,-146.5 220,-146.5"/>
<text text-anchor="middle" x="338" y="-160.8" font-family="Times,serif" font-size="14.00" fill="#000000">conv2d_transpose_3: Conv2DTranspose</text>
</g>
<!-- 139757418520984&#45;&gt;139757418521488 -->
<g id="edge43" class="edge">
<title>139757418520984&#45;&gt;139757418521488</title>
<path fill="none" stroke="#000000" d="M338,-219.4551C338,-211.3828 338,-201.6764 338,-192.6817"/>
<polygon fill="#000000" stroke="#000000" points="341.5001,-192.5903 338,-182.5904 334.5001,-192.5904 341.5001,-192.5903"/>
</g>
<!-- 139757418161768 -->
<g id="node43" class="node">
<title>139757418161768</title>
<polygon fill="none" stroke="#000000" points="275.5,-73.5 275.5,-109.5 400.5,-109.5 400.5,-73.5 275.5,-73.5"/>
<text text-anchor="middle" x="338" y="-87.8" font-family="Times,serif" font-size="14.00" fill="#000000">reshape_1: Reshape</text>
</g>
<!-- 139757418521488&#45;&gt;139757418161768 -->
<g id="edge44" class="edge">
<title>139757418521488&#45;&gt;139757418161768</title>
<path fill="none" stroke="#000000" d="M338,-146.4551C338,-138.3828 338,-128.6764 338,-119.6817"/>
<polygon fill="#000000" stroke="#000000" points="341.5001,-119.5903 338,-109.5904 334.5001,-119.5904 341.5001,-119.5903"/>
</g>
<!-- 139757418160256 -->
<g id="node44" class="node">
<title>139757418160256</title>
<polygon fill="none" stroke="#000000" points="264,-.5 264,-36.5 412,-36.5 412,-.5 264,-.5"/>
<text text-anchor="middle" x="338" y="-14.8" font-family="Times,serif" font-size="14.00" fill="#000000">activation_6: Activation</text>
</g>
<!-- 139757418161768&#45;&gt;139757418160256 -->
<g id="edge45" class="edge">
<title>139757418161768&#45;&gt;139757418160256</title>
<path fill="none" stroke="#000000" d="M338,-73.4551C338,-65.3828 338,-55.6764 338,-46.6817"/>
<polygon fill="#000000" stroke="#000000" points="341.5001,-46.5903 338,-36.5904 334.5001,-46.5904 341.5001,-46.5903"/>
</g>
</g>
</svg>
